<?xml version="1.0" encoding="UTF-8" standalone="no"?>
<!-- Created with Inkscape (http://www.inkscape.org/) -->

<svg
   xmlns:dc="http://purl.org/dc/elements/1.1/"
   xmlns:cc="http://creativecommons.org/ns#"
   xmlns:rdf="http://www.w3.org/1999/02/22-rdf-syntax-ns#"
   xmlns:svg="http://www.w3.org/2000/svg"
   xmlns="http://www.w3.org/2000/svg"
   xmlns:sodipodi="http://sodipodi.sourceforge.net/DTD/sodipodi-0.dtd"
   xmlns:inkscape="http://www.inkscape.org/namespaces/inkscape"
   width="86.358902mm"
   height="42.477337mm"
   viewBox="0 0 86.358902 42.477337"
   version="1.1"
   id="svg36971"
   inkscape:version="0.92.1 r15371"
   sodipodi:docname="cone_shadow.svg">
  <defs
     id="defs36965" />
  <sodipodi:namedview
     id="base"
     pagecolor="#ffffff"
     bordercolor="#666666"
     borderopacity="1.0"
     inkscape:pageopacity="0.0"
     inkscape:pageshadow="2"
     inkscape:zoom="0.35"
     inkscape:cx="308.91221"
     inkscape:cy="-45.442179"
     inkscape:document-units="mm"
     inkscape:current-layer="layer1"
     showgrid="false"
     inkscape:window-width="1920"
     inkscape:window-height="1017"
     inkscape:window-x="-8"
     inkscape:window-y="-8"
     inkscape:window-maximized="1" />
  <metadata
     id="metadata36968">
    <rdf:RDF>
      <cc:Work
         rdf:about="">
        <dc:format>image/svg+xml</dc:format>
        <dc:type
           rdf:resource="http://purl.org/dc/dcmitype/StillImage" />
        <dc:title></dc:title>
      </cc:Work>
    </rdf:RDF>
  </metadata>
  <g
     inkscape:label="Layer 1"
     inkscape:groupmode="layer"
     id="layer1"
     transform="translate(-24.100311,-94.332753)">
    <g
       transform="matrix(0.35277777,0,0,-0.35277777,22.745701,137.79579)"
       inkscape:label="cone_shadow"
       id="g36981">
      <g
         transform="scale(0.1)"
         id="g36983">
        <path
           inkscape:connector-curvature="0"
           id="path36985"
           style="fill:#99cc00;fill-opacity:1;fill-rule:nonzero;stroke:none"
           d="M 1569.11,90.3047 H 1455.72 L 1342.34,71.4063 V 33.6094 h 453.54 V 71.4063 L 1682.5,90.3047" />
        <path
           inkscape:connector-curvature="0"
           id="path36987"
           style="fill:none;stroke:#99cc00;stroke-width:11.3366003;stroke-linecap:butt;stroke-linejoin:miter;stroke-miterlimit:10;stroke-dasharray:none;stroke-opacity:1"
           d="M 1569.11,90.3047 H 1455.72 L 1342.34,71.4063 V 33.6094 h 453.54 V 71.4063 L 1682.5,90.3047 Z" />
        <path
           inkscape:connector-curvature="0"
           id="path36989"
           style="fill:#99cc00;fill-opacity:1;fill-rule:nonzero;stroke:none"
           d="m 1790.21,657.23 v 0 c 0,122.11 -99,221.106 -221.1,221.106 C 1447,878.336 1348,779.34 1348,657.23 c 0,-122.109 99,-221.101 221.11,-221.101 122.1,0 221.1,98.992 221.1,221.101" />
        <path
           inkscape:connector-curvature="0"
           id="path36991"
           style="fill:none;stroke:#99cc00;stroke-width:11.3366003;stroke-linecap:butt;stroke-linejoin:miter;stroke-miterlimit:10;stroke-dasharray:none;stroke-opacity:1"
           d="m 1790.21,657.23 v 0 c 0,122.11 -99,221.106 -221.1,221.106 C 1447,878.336 1348,779.34 1348,657.23 c 0,-122.109 99,-221.101 221.11,-221.101 122.1,0 221.1,98.992 221.1,221.101 z" />
        <path
           inkscape:connector-curvature="0"
           id="path36993"
           style="fill:#99cc00;fill-opacity:1;fill-rule:nonzero;stroke:none"
           d="M 1455.72,487.152 V 657.23 H 1682.5 V 317.074 h -226.78" />
        <path
           inkscape:connector-curvature="0"
           id="path36995"
           style="fill:none;stroke:#99cc00;stroke-width:11.3366003;stroke-linecap:butt;stroke-linejoin:miter;stroke-miterlimit:10;stroke-dasharray:none;stroke-opacity:1"
           d="M 1455.72,487.152 V 657.23 H 1682.5 V 317.074 h -226.78 z" />
        <path
           inkscape:connector-curvature="0"
           id="path36997"
           style="fill:#99cc00;fill-opacity:1;fill-rule:nonzero;stroke:none"
           d="M 1569.11,430.461 H 1455.72 L 1228.95,317.074 V 203.688 L 1455.72,90.3047 H 1682.5 L 1909.27,203.688 V 317.074 L 1682.5,430.461" />
        <path
           inkscape:connector-curvature="0"
           id="path36999"
           style="fill:none;stroke:#99cc00;stroke-width:11.3366003;stroke-linecap:butt;stroke-linejoin:miter;stroke-miterlimit:10;stroke-dasharray:none;stroke-opacity:1"
           d="M 1569.11,430.461 H 1455.72 L 1228.95,317.074 V 203.688 L 1455.72,90.3047 H 1682.5 L 1909.27,203.688 V 317.074 L 1682.5,430.461 Z" />
        <path
           inkscape:connector-curvature="0"
           id="path37001"
           style="fill:#99cc00;fill-opacity:1;fill-rule:nonzero;stroke:none"
           d="M 1569.11,90.3047 H 1455.72 L 1342.34,71.4063 V 33.6094 h 453.54 V 71.4063 L 1682.5,90.3047" />
        <path
           inkscape:connector-curvature="0"
           id="path37003"
           style="fill:none;stroke:#99cc00;stroke-width:11.3366003;stroke-linecap:butt;stroke-linejoin:miter;stroke-miterlimit:10;stroke-dasharray:none;stroke-opacity:1"
           d="M 1569.11,90.3047 H 1455.72 L 1342.34,71.4063 V 33.6094 h 453.54 V 71.4063 L 1682.5,90.3047 Z" />
        <path
           inkscape:connector-curvature="0"
           id="path37005"
           style="fill:#99cc00;fill-opacity:1;fill-rule:nonzero;stroke:none"
           d="m 1790.21,657.23 v 0 c 0,122.11 -99,221.106 -221.1,221.106 C 1447,878.336 1348,779.34 1348,657.23 c 0,-122.109 99,-221.101 221.11,-221.101 122.1,0 221.1,98.992 221.1,221.101" />
        <path
           inkscape:connector-curvature="0"
           id="path37007"
           style="fill:none;stroke:#99cc00;stroke-width:11.3366003;stroke-linecap:butt;stroke-linejoin:miter;stroke-miterlimit:10;stroke-dasharray:none;stroke-opacity:1"
           d="m 1790.21,657.23 v 0 c 0,122.11 -99,221.106 -221.1,221.106 C 1447,878.336 1348,779.34 1348,657.23 c 0,-122.109 99,-221.101 221.11,-221.101 122.1,0 221.1,98.992 221.1,221.101 z" />
        <path
           inkscape:connector-curvature="0"
           id="path37009"
           style="fill:#99cc00;fill-opacity:1;fill-rule:nonzero;stroke:none"
           d="M 1455.72,487.152 V 657.23 H 1682.5 V 317.074 h -226.78" />
        <path
           inkscape:connector-curvature="0"
           id="path37011"
           style="fill:none;stroke:#99cc00;stroke-width:11.3366003;stroke-linecap:butt;stroke-linejoin:miter;stroke-miterlimit:10;stroke-dasharray:none;stroke-opacity:1"
           d="M 1455.72,487.152 V 657.23 H 1682.5 V 317.074 h -226.78 z" />
        <path
           inkscape:connector-curvature="0"
           id="path37013"
           style="fill:#fff200;fill-opacity:1;fill-rule:nonzero;stroke:none"
           d="m 2470.52,1110.78 v 0 c 0,28.17 -22.84,51.02 -51.02,51.02 -28.18,0 -51.02,-22.85 -51.02,-51.02 0,-28.18 22.84,-51.03 51.02,-51.03 28.18,0 51.02,22.85 51.02,51.03" />
        <path
           inkscape:connector-curvature="0"
           id="path37015"
           style="fill:none;stroke:#fff200;stroke-width:11.3366003;stroke-linecap:butt;stroke-linejoin:miter;stroke-miterlimit:10;stroke-dasharray:none;stroke-opacity:1"
           d="m 2470.52,1110.78 v 0 c 0,28.17 -22.84,51.02 -51.02,51.02 -28.18,0 -51.02,-22.85 -51.02,-51.02 0,-28.18 22.84,-51.03 51.02,-51.03 28.18,0 51.02,22.85 51.02,51.03 z" />
        <path
           inkscape:connector-curvature="0"
           id="path37017"
           style="fill:none;stroke:#000000;stroke-width:11.3366003;stroke-linecap:butt;stroke-linejoin:miter;stroke-miterlimit:10;stroke-dasharray:none;stroke-opacity:1"
           d="M 38.3984,33.6094 H 2419.5" />
        <path
           inkscape:connector-curvature="0"
           id="path37019"
           style="fill:#ccff00;fill-opacity:1;fill-rule:nonzero;stroke:none"
           d="m 327.531,458.809 v 419.527 h 45.356 V 39.2773 h -45.356" />
        <path
           inkscape:connector-curvature="0"
           id="path37021"
           style="fill:none;stroke:#ccff00;stroke-width:11.3366003;stroke-linecap:butt;stroke-linejoin:miter;stroke-miterlimit:10;stroke-dasharray:none;stroke-opacity:1"
           d="m 327.531,458.809 v 419.527 h 45.356 V 39.2773 h -45.356 z" />
        <path
           inkscape:connector-curvature="0"
           id="path37023"
           style="fill:none;stroke:#808080;stroke-width:5.67043018;stroke-linecap:butt;stroke-linejoin:miter;stroke-miterlimit:10;stroke-dasharray:50.1252, 30.0751;stroke-dashoffset:0;stroke-opacity:1"
           d="M 349.512,51.0625 2319.66,1229.59" />
        <path
           inkscape:connector-curvature="0"
           id="path37025"
           style="fill:none;stroke:#808080;stroke-width:5.67043018;stroke-linecap:butt;stroke-linejoin:miter;stroke-miterlimit:10;stroke-dasharray:50.0776, 30.0466;stroke-dashoffset:0;stroke-opacity:1"
           d="M 349.512,51.0625 2461.41,945.645" />
        <path
           inkscape:connector-curvature="0"
           id="path37027"
           style="fill:none;stroke:#808080;stroke-width:5.6704402;stroke-linecap:butt;stroke-linejoin:miter;stroke-miterlimit:10;stroke-dasharray:50.1383, 30.083;stroke-dashoffset:25.00029945;stroke-opacity:1"
           d="m 2458.38,1121.7 v 0 l -7.62,14.03 -8.26,13.2 -8.84,12.3 -9.32,11.36 -9.74,10.38 -10.06,9.34 -10.33,8.26 -10.5,7.13 -10.6,5.94 -10.62,4.72 -10.56,3.43 -10.43,2.12 -10.21,0.73 -9.91,-0.68 -9.55,-2.16 -9.1,-3.68 -8.37,-5.12 -7.42,-6.38 -6.46,-7.56 -5.49,-8.64 -4.51,-9.63 -3.53,-10.54 -2.54,-11.34 -1.53,-12.05 -0.53,-12.68 0.49,-13.21 1.5,-13.65 2.54,-14 3.58,-14.26 4.63,-14.43 5.67,-14.49 6.74,-14.48 7.62,-14.03 8.26,-13.2 8.84,-12.301 9.32,-11.363 9.74,-10.379 10.06,-9.34 10.33,-8.258 10.5,-7.125 10.6,-5.945 10.62,-4.715 10.56,-3.438 10.43,-2.109 10.21,-0.738 9.91,0.687 9.55,2.16 9.1,3.68 8.37,5.117 7.42,6.383 6.46,7.559 5.49,8.64 4.51,9.633 3.53,10.531 2.53,11.34 1.54,12.051 0.53,12.68 -0.49,13.21 -1.5,13.66 -2.54,14 -3.58,14.25 -4.63,14.43 -5.67,14.49 z" />
        <path
           inkscape:connector-curvature="0"
           id="path37029"
           style="fill:#808080;fill-opacity:1;fill-rule:nonzero;stroke:none"
           d="m 1384.3,685.238 c -46.78,-23.789 -65.41,-81 -41.62,-127.777 23.78,-46.777 81,-65.41 127.77,-41.621 46.78,23.789 65.41,81 41.62,127.777 -23.78,46.778 -81,65.41 -127.77,41.621" />
        <path
           inkscape:connector-curvature="0"
           id="path37031"
           style="fill:none;stroke:#808080;stroke-width:11.3366003;stroke-linecap:butt;stroke-linejoin:miter;stroke-miterlimit:10;stroke-dasharray:none;stroke-opacity:1"
           d="M 346.492,50.8047 1345.2,558.746" />
        <path
           inkscape:connector-curvature="0"
           id="path37033"
           style="fill:#4c4c4c;fill-opacity:1;fill-rule:nonzero;stroke:none"
           d="m 365.453,54.9883 v 0 c 0,4.5664 -3.707,8.2695 -8.273,8.2695 -4.567,0 -8.27,-3.7031 -8.27,-8.2695 0,-4.5664 3.703,-8.2735 8.27,-8.2735 4.566,0 8.273,3.7071 8.273,8.2735" />
        <path
           inkscape:connector-curvature="0"
           id="path37035"
           style="fill:none;stroke:#4c4c4c;stroke-width:11.3366003;stroke-linecap:butt;stroke-linejoin:miter;stroke-miterlimit:10;stroke-dasharray:none;stroke-opacity:1"
           d="m 365.453,54.9883 v 0 c 0,4.5664 -3.707,8.2695 -8.273,8.2695 -4.567,0 -8.27,-3.7031 -8.27,-8.2695 0,-4.5664 3.703,-8.2735 8.27,-8.2735 4.566,0 8.273,3.7071 8.273,8.2735 z" />
        <path
           inkscape:connector-curvature="0"
           id="path37037"
           style="fill:#cccccc;fill-opacity:1;fill-rule:nonzero;stroke:none"
           d="m 361.672,742.859 v 0 c 0,4.567 -3.707,8.274 -8.274,8.274 -4.566,0 -8.269,-3.707 -8.269,-8.274 0,-4.566 3.703,-8.273 8.269,-8.273 4.567,0 8.274,3.707 8.274,8.273" />
        <path
           inkscape:connector-curvature="0"
           id="path37039"
           style="fill:none;stroke:#cccccc;stroke-width:11.3366003;stroke-linecap:butt;stroke-linejoin:miter;stroke-miterlimit:10;stroke-dasharray:none;stroke-opacity:1"
           d="m 361.672,742.859 v 0 c 0,4.567 -3.707,8.274 -8.274,8.274 -4.566,0 -8.269,-3.707 -8.269,-8.274 0,-4.566 3.703,-8.273 8.269,-8.273 4.567,0 8.274,3.707 8.274,8.273 z" />
        <g
           transform="scale(10)"
           id="g37041">
          <text
             id="text37045"
             style="font-variant:normal;font-weight:normal;font-size:9.96263981px;font-family:CMR10;-inkscape-font-specification:CMR10;writing-mode:lr-tb;fill:#000000;fill-opacity:1;fill-rule:nonzero;stroke:none"
             transform="matrix(1,0,0,-1,137.068,23.2035)">
            <tspan
               id="tspan37043"
               sodipodi:role="line"
               y="0"
               x="0 7.8000045 12.240006 16.679995 19.439646 24.959646 30.479647 34.919647">Occluder</tspan>
          </text>
        </g>
        <path
           inkscape:connector-curvature="0"
           id="path37047"
           style="fill:none;stroke:#cccccc;stroke-width:5.67043018;stroke-linecap:butt;stroke-linejoin:miter;stroke-miterlimit:10;stroke-dasharray:45.212, 27.1272;stroke-dashoffset:25.00029945;stroke-opacity:1"
           d="m 2462.02,1079.59 v 0 l -0.44,14.49 -1.29,14.08 -2.09,13.58 -2.86,13.02 -3.59,12.39 -4.26,11.68 -4.89,10.92 -5.49,10.06 -6.04,9.15 -6.55,8.16 -7.01,7.09 -7.43,5.97 -7.81,4.77 -8.15,3.49 -8.45,2.15 -8.69,0.73 -8.69,-0.73 -8.45,-2.15 -8.15,-3.49 -7.81,-4.77 -7.43,-5.97 -7.01,-7.09 -6.55,-8.16 -6.04,-9.15 -5.49,-10.06 -4.9,-10.92 -4.25,-11.68 -3.58,-12.39 -2.86,-13.02 -2.1,-13.58 -1.29,-14.08 -0.43,-14.49 0.43,-14.49 1.29,-14.07 2.1,-13.58 2.86,-13.02 3.58,-12.39 4.25,-11.69 4.9,-10.912 5.49,-10.063 6.04,-9.148 6.55,-8.161 7.01,-7.097 7.43,-5.969 7.81,-4.766 8.15,-3.492 8.45,-2.148 8.69,-0.731 8.69,0.731 8.45,2.148 8.15,3.492 7.81,4.766 7.43,5.969 7.01,7.097 6.55,8.161 6.04,9.148 5.49,10.063 4.89,10.912 4.26,11.69 3.59,12.39 2.86,13.02 2.09,13.58 1.29,14.07 z" />
        <path
           inkscape:connector-curvature="0"
           id="path37049"
           style="fill:#cccccc;fill-opacity:1;fill-rule:nonzero;stroke:none"
           d="m 1510.61,1036.73 c -51.73,-8.82 -86.52,-57.921 -77.69,-109.652 8.82,-51.73 57.92,-86.515 109.65,-77.691 51.73,8.82 86.51,57.918 77.69,109.648 -8.82,51.735 -57.92,86.515 -109.65,77.695" />
        <path
           inkscape:connector-curvature="0"
           id="path37051"
           style="fill:none;stroke:#cccccc;stroke-width:11.3366003;stroke-linecap:butt;stroke-linejoin:miter;stroke-miterlimit:10;stroke-dasharray:none;stroke-opacity:1"
           d="M 349.512,742.273 1435.71,927.555" />
        <path
           inkscape:connector-curvature="0"
           id="path37053"
           style="fill:none;stroke:#cccccc;stroke-width:5.67043018;stroke-linecap:butt;stroke-linejoin:miter;stroke-miterlimit:10;stroke-dasharray:50.7075, 30.4245;stroke-dashoffset:0;stroke-opacity:1"
           d="M 350.211,742.273 2419.5,943.059" />
        <path
           inkscape:connector-curvature="0"
           id="path37055"
           style="fill:none;stroke:#cccccc;stroke-width:5.67043018;stroke-linecap:butt;stroke-linejoin:miter;stroke-miterlimit:10;stroke-dasharray:50.4752, 30.2852;stroke-dashoffset:0;stroke-opacity:1"
           d="M 2362.81,1224.16 350.211,742.273" />
        <path
           inkscape:connector-curvature="0"
           id="path37057"
           style="fill:#333333;fill-opacity:1;fill-rule:nonzero;stroke:none"
           d="m 1491.93,754.898 c -53.94,-26.968 -75.8,-92.562 -48.84,-146.5 26.97,-53.937 92.57,-75.804 146.5,-48.835 53.94,26.968 75.81,92.562 48.84,146.5 -26.97,53.937 -92.56,75.804 -146.5,48.835" />
        <path
           inkscape:connector-curvature="0"
           id="path37059"
           style="fill:none;stroke:#333333;stroke-width:11.3366003;stroke-linecap:butt;stroke-linejoin:miter;stroke-miterlimit:10;stroke-dasharray:none;stroke-opacity:1"
           d="m 1427.38,600.539 18.25,9.129" />
        <path
           inkscape:connector-curvature="0"
           id="path37061"
           style="fill:#b2b2b2;fill-opacity:1;fill-rule:nonzero;stroke:none"
           d="m 1632.73,1076.12 c -59.13,-11.83 -97.48,-69.36 -85.66,-128.491 11.83,-59.133 69.36,-97.484 128.49,-85.66 59.14,11.828 97.49,69.359 85.66,128.492 -11.83,59.129 -69.36,97.489 -128.49,85.659" />
        <path
           inkscape:connector-curvature="0"
           id="path37063"
           style="fill:none;stroke:#b2b2b2;stroke-width:11.3366003;stroke-linecap:butt;stroke-linejoin:miter;stroke-miterlimit:10;stroke-dasharray:none;stroke-opacity:1"
           d="m 1512.41,940.695 37.44,7.489" />
        <g
           transform="scale(10)"
           id="g37065">
          <text
             id="text37071"
             style="font-variant:normal;font-weight:normal;font-size:9.96263981px;font-family:CMMI10;-inkscape-font-specification:CMMI10;writing-mode:lr-tb;fill:#000000;fill-opacity:1;fill-rule:nonzero;stroke:none"
             transform="matrix(1,0,0,-1,29.3516,5.62891)">
            <tspan
               id="tspan37067"
               y="0"
               x="0">x</tspan>
            <tspan
               id="tspan37069"
               y="-70.865997"
               x="0">x</tspan>
          </text>
          <text
             id="text37075"
             style="font-variant:normal;font-weight:normal;font-size:6.97384977px;font-family:CMSY7;-inkscape-font-specification:CMSY7;writing-mode:lr-tb;fill:#000000;fill-opacity:1;fill-rule:nonzero;stroke:none"
             transform="matrix(1,0,0,-1,34.99183,80.09491)">
            <tspan
               id="tspan37073"
               y="0"
               x="0">′</tspan>
          </text>
        </g>
      </g>
    </g>
  </g>
</svg>
