<?xml version="1.0" encoding="UTF-8" standalone="no"?>
<!-- Generator: Adobe Illustrator 21.0.0, SVG Export Plug-In . SVG Version: 6.00 Build 0)  -->

<svg
   xmlns:dc="http://purl.org/dc/elements/1.1/"
   xmlns:cc="http://creativecommons.org/ns#"
   xmlns:rdf="http://www.w3.org/1999/02/22-rdf-syntax-ns#"
   xmlns:svg="http://www.w3.org/2000/svg"
   xmlns="http://www.w3.org/2000/svg"
   xmlns:sodipodi="http://sodipodi.sourceforge.net/DTD/sodipodi-0.dtd"
   xmlns:inkscape="http://www.inkscape.org/namespaces/inkscape"
   version="1.1"
   id="Layer_1"
   x="0px"
   y="0px"
   viewBox="0 0 75 75"
   style="enable-background:new 0 0 75 75;"
   xml:space="preserve"
   inkscape:version="0.91 r13725"
   sodipodi:docname="ARM_Community_Group_Icons_Processors.svg"><metadata
     id="metadata17"><rdf:RDF><cc:Work
         rdf:about=""><dc:format>image/svg+xml</dc:format><dc:type
           rdf:resource="http://purl.org/dc/dcmitype/StillImage" /></cc:Work></rdf:RDF></metadata><defs
     id="defs15" /><sodipodi:namedview
     pagecolor="#ffffff"
     bordercolor="#666666"
     borderopacity="1"
     objecttolerance="10"
     gridtolerance="10"
     guidetolerance="10"
     inkscape:pageopacity="0"
     inkscape:pageshadow="2"
     inkscape:window-width="640"
     inkscape:window-height="480"
     id="namedview13"
     showgrid="false"
     inkscape:zoom="3.1466667"
     inkscape:cx="37.5"
     inkscape:cy="37.5"
     inkscape:window-x="0"
     inkscape:window-y="0"
     inkscape:window-maximized="0"
     inkscape:current-layer="Layer_1" /><style
     type="text/css"
     id="style3">
	.st0{fill:#0E6780;}
	.st1{fill:#FFFFFF;}
</style><g
     id="Processors"><polygon
       class="st1"
       points="60.1,41.3 58.3,42.4 61.3,44.1 37.5,57.8 13.7,44.1 16.8,42.3 15,41.2 10,44.1 37.5,60 65,44.1  "
       id="polygon7" /><polygon
       class="st1"
       points="37.5,43.1 51,35.3 37.5,27.5 24,35.2  "
       id="polygon9" /><path
       class="st1"
       d="M17.1,43.8l2.2,1.3l2.3-1.3v-1.6l3.4,1.9v1.6L22.7,47l2.2,1.3l2.3-1.3v-1.6l3.4,1.9V49l-2.3,1.3l2.2,1.3   l2.3-1.3v-1.6l4.8,2.8l4.6-2.7v1.4l2.3,1.3l2.2-1.3L44.4,49v-1.4l3.4-1.9V47l2.3,1.3l2.2-1.3L50,45.7v-1.5l3.4-2v1.5l2.3,1.3   l2.2-1.3l-2.3-1.3v-1.5l1.9-1.1v-5.4L37.5,23l-20,11.4v5.4l1.9,1.1v1.6L17.1,43.8z M19.6,38.6V36L37,46.1v2.6l-3.1-1.8l1.6-0.9   l-2.2-1.3l-1.6,0.9l-3.4-1.9l1.6-0.9l-2.2-1.3l-1.6,0.9l-3.4-1.9l1.6-0.9l-2.2-1.3l-1.6,0.9L19.6,38.6z M55.4,36.1v2.7l-0.8,0.5   l-1.7-1l-2.2,1.3l1.7,1L49,42.5l-1.7-1l-2.2,1.3l1.7,1l-3.4,1.9l-1.7-1L39.5,46l1.7,1L38,48.9v-2.7L55.4,36.1z M54.7,35.3   l-17.2,9.9l-17.3-10l17.2-9.8L54.7,35.3z"
       id="path11" /></g></svg>